<?xml version="1.0" encoding="utf-8"?>
<!-- Generator: Adobe Illustrator 16.0.2, SVG Export Plug-In . SVG Version: 6.00 Build 0)  -->
<!DOCTYPE svg PUBLIC "-//W3C//DTD SVG 1.1//EN" "http://www.w3.org/Graphics/SVG/1.1/DTD/svg11.dtd">
<svg version="1.1" id="b368e7d6-7c4a-408c-9a35-0514749a7e1a"
	 xmlns="http://www.w3.org/2000/svg" xmlns:xlink="http://www.w3.org/1999/xlink" x="0px" y="0px" width="870px" height="520.139px"
	 viewBox="0 0 870 520.139" enable-background="new 0 0 870 520.139" xml:space="preserve">
<path fill="#F2F2F2" d="M207.754,517.67c-57.361,8.216-115.762-4.561-164.453-35.977c-15.068-9.806-29.45-21.857-37.257-38.052
	c-10.597-21.984-6.893-49.821,8.238-68.97c15.13-19.147,40.673-29.156,64.933-26.507c24.26,2.65,46.645,17.463,59.568,38.164
	c14.273,22.862,17.02,50.833,19.402,77.68c4.329-13.925,20.578-22.433,34.833-19.359s25.244,16.38,27.019,30.854
	s-4.991,29.342-16.13,38.754L207.754,517.67z"/>
<path fill="#FFFFFF" d="M831.728,356.079c-20.018,16.304-38.381,34.54-54.826,54.442c-25.735,31.04-46.562,65.842-61.752,103.193
	c-1.112,2.725,3.313,3.911,4.412,1.217c24.854-60.704,64.531-114.207,115.401-155.617
	C837.248,357.454,833.993,354.234,831.728,356.079z"/>
<path fill="#F2F2F2" d="M584.649,516.388c77.938,11.47,159.848-6.449,225.878-49.414c20.696-13.468,40.449-30.021,51.172-52.265
	c14.555-30.194,9.466-68.429-11.315-94.729c-20.78-26.3-55.864-40.047-89.185-36.407c-33.321,3.64-64.066,23.984-81.818,52.417
	c-19.604,31.401-23.375,69.82-26.648,106.693c-5.946-19.125-28.266-30.812-47.844-26.59c-19.579,4.222-34.673,22.497-37.109,42.378
	c-2.438,19.88,6.855,40.301,22.154,53.228"/>
<path fill="#FFFFFF" d="M817.434,294.442c3.111-2.534,7.581,1.889,4.443,4.443c-15.307,12.46-29.918,25.751-43.766,39.815
	c-24.484,24.877-46.496,52.07-65.729,81.198c-19.327,29.233-35.742,60.291-49.01,92.727c-1.51,3.701-7.588,2.072-6.061-1.671
	c7.491-18.397,15.98-36.373,25.431-53.846c16.907-31.148,36.796-60.583,59.386-87.891
	C764.717,341.883,789.939,316.836,817.434,294.442L817.434,294.442z"/>
<path fill="#F2F2F2" d="M245.5,144.5C245.5,64.822,310.322,0,390,0h76c79.678,0,144.5,64.822,144.5,144.5V519h-365V144.5z"/>
<path fill="#CCCCCC" d="M321.5,144.5c-0.08-30.531,9.589-60.291,27.597-84.946c0.663-0.903,1.325-1.796,2.006-2.677
	c3.911-5.129,8.162-9.99,12.724-14.551c5.689-5.686,11.838-10.891,18.384-15.564c0.663-0.472,1.335-0.943,2.007-1.405
	c9.668-6.654,20.114-12.1,31.106-16.216c0.663-0.251,1.335-0.502,2.009-0.743c10.063-3.591,20.493-6.051,31.101-7.335
	c0.665-0.091,1.341-0.161,2.014-0.231c10.339-1.105,20.767-1.105,31.105,0c0.675,0.07,1.351,0.141,2.009,0.23
	c10.609,1.284,21.043,3.744,31.107,7.336c0.674,0.241,1.346,0.492,2.008,0.742c11.129,4.168,21.699,9.696,31.472,16.459
	c0.672,0.472,1.335,0.943,1.994,1.423c11.679,8.366,22.044,18.427,30.754,29.851c0.683,0.883,1.345,1.776,2.009,2.681
	C600.912,84.21,610.58,113.969,610.5,144.5V519h-289V144.5z"/>
<circle fill="#F9A826" cx="345" cy="335.5" r="16"/>
<polygon fill="#FFB8B8" points="275.399,460.496 293.494,460.495 287.661,507.783 275.401,507.783 "/>
<path fill="#2F2E41" d="M573.582,504.28h23.644l0,0v14.887l0,0h-38.531l0,0l0,0C558.694,510.945,565.359,504.28,573.582,504.28
	L573.582,504.28z"/>
<polygon fill="#FFB8B8" points="214.399,460.496 232.494,460.495 226.661,507.783 214.401,507.783 "/>
<path fill="#2F2E41" d="M634.582,504.28h23.644l0,0v14.887l0,0h-38.531l0,0l0,0C619.694,510.945,626.359,504.28,634.582,504.28
	L634.582,504.28z"/>
<path fill="#FFB8B8" d="M324.187,342.795c-5.596-2.065-8.458-8.276-6.393-13.873l-47.585-109.771l20.507-11.191l41.676,114.866
	c0.578,0.258,1.132,0.566,1.655,0.922c4.909,3.332,6.188,10.013,2.855,14.922C334.126,342.817,328.869,344.522,324.187,342.795z"/>
<path fill="#FFB8B8" d="M207.427,358.386c-4.124-4.311-3.973-11.147,0.337-15.271l5.366-119.521l23.338-1.066l-12.911,121.51
	c0.406,0.484,0.769,1.005,1.083,1.554c2.951,5.147,1.171,11.712-3.976,14.663C216.35,362.764,210.877,361.992,207.427,358.386z"/>
<circle fill="#FFB8B8" cx="257.894" cy="162.123" r="24.561"/>
<path fill="#F9A826" d="M213.167,231.328c-0.701-8.852,2.803-17.519,9.46-23.396c22.313-19.38,48.748-11.395,62.52-4.909h0.001
	c5.453,2.595,8.071,8.886,6.069,14.583c-9.636,27.997,3.429,113.575,3.562,114.437l0.089,0.576H220.82L213.167,231.328z"/>
<path fill="#F9A826" d="M271.25,221.455c-1.908-7.465,2.575-15.068,10.031-17.012c7.48-1.95,15.125,2.534,17.075,10.014
	l15.626,37.03l-33.337,6.763L271.25,221.455z"/>
<path fill="#F9A826" d="M204.835,263.02l7.533-42.928c1.526-8.7,8.953-14.689,16.559-13.36c7.603,1.334,12.547,9.499,11.027,18.135
	l-2.005,45.941L204.835,263.02z"/>
<path fill="#2F2E41" d="M294.284,332.118c8.613,37.285,3.377,93.971-2,160l-18,1l-16-122l-29,120l-16,2
	c-3.215-62.931-1.915-120.623,10-166L294.284,332.118z"/>
<path fill="#2F2E41" d="M231.418,166.099c-2.441-8.154-1.972-17.529,2.908-24.502c4.014-5.734,10.48-9.246,17.001-11.788
	c5.739-2.236,11.845-3.898,17.992-3.511s12.373,3.073,15.924,8.106c2.911,4.127,3.176,10.914-1.247,13.353
	c-3.975,2.192-10.313,0.217-12.454,4.221c-1.621,3.033,0.862,7.306-1.251,10.021c-3.445,4.426-12.017-2.65-15.668,2.239
	c-0.458,0.633-0.747,1.373-0.84,2.149c-0.408,3.118,1.298,5.8,1.605,8.753c0.054,0.517,0.058,1.038,0.011,1.556
	c-0.597,6.668-9.106,9.288-13.688,4.407C237.969,177.118,232.902,171.059,231.418,166.099z"/>
<path fill="#3F3D56" d="M839.981,519.644H101.688c-0.658-0.004-1.188-0.539-1.185-1.197c0.003-0.652,0.532-1.181,1.185-1.185
	h738.294c0.657,0.004,1.188,0.54,1.185,1.197C841.162,519.111,840.635,519.64,839.981,519.644z"/>
<path fill="#FFFFFF" d="M394.5,404.085v-290.17c0.027-3.564,2.936-6.434,6.5-6.415h130c3.564-0.019,6.473,2.851,6.5,6.415v290.17
	c-0.027,3.564-2.936,6.435-6.5,6.415H401C397.436,410.52,394.527,407.649,394.5,404.085z"/>
<rect x="394.5" y="201.39" fill="#CCCCCC" width="143" height="2"/>
<rect x="394" y="315.5" fill="#CCCCCC" width="143" height="2"/>
<rect x="490.5" y="107.5" fill="#CCCCCC" width="2" height="304"/>
<rect x="440.5" y="107.5" fill="#CCCCCC" width="2" height="304"/>
</svg>
